HIERARCHY
ROOT SpineBase
{
  OFFSET 0.000000 0.000000 0.000000
  CHANNELS 6 Xposition Yposition Zposition Zrotation Xrotation Yrotation
  JOINT SpineMid
  {
    OFFSET -0.000000 28.905721 0.000000
    CHANNELS 3 Zrotation Xrotation Yrotation
    JOINT SpineShoulder
    {
      OFFSET -0.036579 21.493667 -0.669178
      CHANNELS 3 Zrotation Xrotation Yrotation
      JOINT Neck
      {
        OFFSET -0.024478 7.115869 -0.519784
        CHANNELS 3 Zrotation Xrotation Yrotation
        JOINT Head
        {
          OFFSET -2.659549 12.840239 0.140577
          CHANNELS 3 Zrotation Xrotation Yrotation
          End Site
          {
            OFFSET 0 0 0
          }
        }
      }
      JOINT ShoulderLeft
      {
        OFFSET -13.042359 -3.213540 7.885782
        CHANNELS 3 Zrotation Xrotation Yrotation
        JOINT ElbowLeft
        {
          OFFSET -1.096402 -26.224372 1.541045
          CHANNELS 3 Zrotation Xrotation Yrotation
          JOINT WristLeft
          {
            OFFSET -1.425967 -26.108832 -0.852265
            CHANNELS 3 Zrotation Xrotation Yrotation
            JOINT HandLeft
            {
              OFFSET 2.473117 -5.142136 -1.991436
              CHANNELS 3 Zrotation Xrotation Yrotation
              JOINT HandTipLeft
              {
                OFFSET 2.611908 -5.439138 -4.480212
                CHANNELS 3 Zrotation Xrotation Yrotation
                End Site
                {
                  OFFSET 0 0 0
                }
              }
              JOINT ThumbLeft
              {
                OFFSET 2.245313 1.388930 -5.470229
                CHANNELS 3 Zrotation Xrotation Yrotation
                End Site
                {
                  OFFSET 0 0 0
                }
              }
            }
          }
        }
      }
      JOINT ShoulderRight
      {
        OFFSET 10.938059 -3.974270 -10.931344
        CHANNELS 3 Zrotation Xrotation Yrotation
        JOINT ElbowRight
        {
          OFFSET 5.901870 -22.780385 -2.253822
          CHANNELS 3 Zrotation Xrotation Yrotation
          JOINT WristRight
          {
            OFFSET -0.482495 -18.998968 -5.287572
            CHANNELS 3 Zrotation Xrotation Yrotation
            JOINT HandRight
            {
              OFFSET -0.891514 -7.193697 0.085685
              CHANNELS 3 Zrotation Xrotation Yrotation
              JOINT HandTipRight
              {
                OFFSET 0.164490 -5.985130 -0.088052
                CHANNELS 3 Zrotation Xrotation Yrotation
                End Site
                {
                  OFFSET 0 0 0
                }
              }
              JOINT ThumbRight
              {
                OFFSET -3.094434 1.561012 -0.063817
                CHANNELS 3 Zrotation Xrotation Yrotation
                End Site
                {
                  OFFSET 0 0 0
                }
              }
            }
          }
        }
      }
    }
  }
  JOINT HipLeft
  {
    OFFSET -5.042021 0.086200 -0.034919
    CHANNELS 3 Zrotation Xrotation Yrotation
    JOINT KneeLeft
    {
      OFFSET 5.175209 -26.383145 6.876523
      CHANNELS 3 Zrotation Xrotation Yrotation
      JOINT AnkleLeft
      {
        OFFSET 10.096231 -35.657940 8.704341
        CHANNELS 3 Zrotation Xrotation Yrotation
        JOINT FootLeft
        {
          OFFSET -2.049413 -4.787472 -6.349154
          CHANNELS 3 Zrotation Xrotation Yrotation
          End Site
          {
            OFFSET 0 0 0
          }
        }
      }
    }
  }
  JOINT HipRight
  {
    OFFSET 4.707542 1.496189 -6.599737
    CHANNELS 3 Zrotation Xrotation Yrotation
    JOINT KneeRight
    {
      OFFSET 8.652895 -30.805491 7.707530
      CHANNELS 3 Zrotation Xrotation Yrotation
      JOINT AnkleRight
      {
        OFFSET 2.502847 -29.893274 8.942364
        CHANNELS 3 Zrotation Xrotation Yrotation
        JOINT FootRight
        {
          OFFSET -4.722992 -2.996564 -8.513995
          CHANNELS 3 Zrotation Xrotation Yrotation
          End Site
          {
            OFFSET 0 0 0
          }
        }
      }
    }
  }
}
MOTION
Frames: 7
Frame Time: 0.033333
49.938238 69.628923 269.982826 6.111382 0.829293 36.770702 -0.218816 -0.146915 -36.613886 0.039443 -0.206383 0.267082 -8.397883 7.396132 1.312694 0.000000 0.000000 0.000000 -18.071881 -31.623901 -3.194267 -9.416748 1.097669 4.558066 -39.942614 -16.358087 4.626072 -19.572248 -39.490322 -22.187717 0.000000 0.000000 0.000000 0.000000 0.000000 0.000000 3.446778 44.360358 6.547068 2.060019 2.742275 -13.980216 19.511774 32.922940 -7.214278 -32.770565 0.750415 -13.353375 0.000000 0.000000 0.000000 0.000000 0.000000 0.000000 11.449374 28.211272 -35.780081 0.783695 -14.441298 -0.955776 -16.016767 -1.136189 7.429887 0.000000 0.000000 0.000000 12.004700 21.416156 -32.419149 -1.544544 -35.938480 -6.477070 2.874329 -0.470021 -9.741389 0.000000 0.000000 0.000000
50.892828 69.297620 268.176393 7.026505 1.180191 36.330496 -0.222007 -0.196103 -36.167588 0.099210 -0.166629 0.311645 -7.220421 7.893937 1.225975 0.000000 0.000000 0.000000 -17.831880 -31.140922 -2.883205 -9.062145 0.370939 4.161189 -40.631946 -15.972489 5.441069 -20.146035 -39.366079 -24.533727 0.000000 0.000000 0.000000 0.000000 0.000000 0.000000 3.066107 43.489183 6.112664 3.764635 3.122614 -13.857713 16.405794 29.173894 -5.989418 -31.548177 5.230421 -11.714009 0.000000 0.000000 0.000000 0.000000 0.000000 0.000000 8.789284 29.217031 -35.529330 3.241289 -15.979723 -0.052041 -16.566841 0.581503 7.945119 0.000000 0.000000 0.000000 13.865167 23.276262 -31.722852 -1.992463 -37.514788 -6.691736 -0.372213 -0.530668 -5.078083 0.000000 0.000000 0.000000
51.840733 69.303193 266.267013 7.970391 1.543018 36.596929 -0.186579 -0.197533 -36.436633 0.119353 -0.160223 0.356493 -5.900063 8.870699 1.214261 0.000000 0.000000 0.000000 -17.506276 -30.218789 -2.544256 -8.827928 0.215022 3.823218 -42.230773 -16.751277 5.397279 -18.157396 -38.065800 -25.619987 0.000000 0.000000 0.000000 0.000000 0.000000 0.000000 2.753792 42.277513 5.608117 5.798423 2.933481 -13.595047 14.723586 28.213710 -5.851902 -25.284866 9.509389 -7.132237 0.000000 0.000000 0.000000 0.000000 0.000000 0.000000 5.618724 29.679739 -36.010542 6.152628 -16.537912 1.201203 -17.203149 2.117875 8.550430 0.000000 0.000000 0.000000 14.531405 24.480136 -32.011908 -1.157475 -37.701357 -6.053241 -5.251171 3.049740 -1.887374 0.000000 0.000000 0.000000
52.597777 69.527299 264.586141 8.813393 1.865039 36.897535 -0.195921 -0.200005 -36.744275 0.123219 -0.160378 0.394332 -4.672937 9.290906 1.099709 0.000000 0.000000 0.000000 -16.821105 -28.378564 -2.108795 -8.978661 -0.109860 3.495545 -43.982081 -17.089247 6.619908 -18.211150 -37.697680 -26.585397 0.000000 0.000000 0.000000 0.000000 0.000000 0.000000 3.960826 40.799605 4.454980 6.135386 1.536293 -13.389400 13.936457 27.005579 -5.375429 -17.856729 15.416190 -2.632895 0.000000 0.000000 0.000000 0.000000 0.000000 0.000000 2.785826 29.980614 -36.474041 8.796974 -16.678834 2.364094 -18.034010 3.180687 9.205725 0.000000 0.000000 0.000000 14.024697 25.156473 -32.465326 2.482817 -35.145409 -3.396073 -10.580793 3.452290 0.216416 0.000000 0.000000 0.000000
53.315099 69.927827 263.022716 9.580984 2.197580 37.492889 -0.175534 -0.184448 -37.355148 0.111330 -0.147024 0.427168 -3.546257 9.904330 1.037863 0.000000 0.000000 0.000000 -16.143452 -26.607598 -1.752140 -8.917440 -0.036511 3.150698 -46.619316 -17.755734 8.058376 -17.095531 -36.666820 -28.080282 0.000000 0.000000 0.000000 0.000000 0.000000 0.000000 5.957970 38.120482 2.934093 5.580236 1.434697 -13.335838 14.919353 27.027267 -5.109078 -9.602346 19.693100 0.861407 0.000000 0.000000 0.000000 0.000000 0.000000 0.000000 0.244423 30.023800 -37.231450 10.839984 -16.694965 3.130930 -18.430156 4.323396 9.928668 0.000000 0.000000 0.000000 12.340504 25.068183 -33.304156 7.222037 -29.769789 -0.169170 -15.391671 0.867099 1.560527 0.000000 0.000000 0.000000
53.965964 70.296841 261.305083 10.270064 2.806213 38.525589 -0.193490 -0.186406 -38.431169 0.083386 -0.142874 0.455535 -2.532375 10.100011 0.976401 0.000000 0.000000 0.000000 -15.265477 -24.571272 -1.442456 -9.346404 -0.209522 2.852539 -49.112500 -18.574566 8.984080 -15.769339 -35.686203 -29.855298 0.000000 0.000000 0.000000 0.000000 0.000000 0.000000 8.356790 34.688469 1.465825 4.111383 1.732313 -13.338857 15.609720 28.078741 -5.554470 -3.875317 22.655586 2.603413 0.000000 0.000000 0.000000 0.000000 0.000000 0.000000 -1.143405 29.457053 -38.430602 11.234596 -17.446043 2.880059 -18.519127 5.609358 11.312540 0.000000 0.000000 0.000000 10.425809 23.211143 -34.430453 10.205799 -22.892642 1.823512 -17.925303 -4.310876 1.023646 0.000000 0.000000 0.000000
54.557784 70.530144 259.589086 10.847260 3.557512 39.785789 -0.226752 -0.171193 -39.757401 0.025919 -0.168388 0.477794 -1.533949 10.181027 0.957501 0.000000 0.000000 0.000000 -14.870406 -23.610240 -1.355679 -11.219601 0.158322 3.036683 -48.013446 -18.354737 8.833537 -15.595661 -35.691060 -29.342510 0.000000 0.000000 0.000000 0.000000 0.000000 0.000000 10.187285 32.129477 0.586604 4.098503 0.788276 -13.155575 14.784893 28.048926 -5.622168 -0.702173 26.893241 1.771952 0.000000 0.000000 0.000000 0.000000 0.000000 0.000000 -2.100884 28.671770 -39.876730 10.764522 -18.091775 2.215999 -18.158271 6.655227 12.702833 0.000000 0.000000 0.000000 9.510492 21.640354 -35.704855 11.075454 -18.591232 2.352382 -21.006910 -5.903476 2.844544 0.000000 0.000000 0.000000
